{"title":"Watchers (1988) - DVDRip - MP3 - ENG","uid":4402769,"size":736578974,"categoryP":"video","categoryS":"movies","magnet":"?xt=urn:btih:373bd538bb4061e098152847e3ab8b0b7137b4a1&amp;dn=Watchers+%281988%29+-+DVDRip+-+MP3+-+ENG&amp;tr=udp%3A%2F%2Ftracker.openbittorrent.com%3A80&amp;tr=udp%3A%2F%2Fopen.demonii.com%3A1337&amp;tr=udp%3A%2F%2Ftracker.coppersurfer.tk%3A6969&amp;tr=udp%3A%2F%2Fexodus.desync.com%3A6969","seeders":2,"leechers":2,"uploader":"206andy206","files":-1,"time":1221784206,"description":"Watchers (1988)\n\nIMDB: http://www.imdb.com/title/tt0096425/\nUser Rating: 4.6/10 (851 votes)\nRelease Date: December 1988 (USA)  \nGenre: Action | Horror | Sci-Fi\nTagline: Secret experiment, Unstoppable monster, Deadly mistake...\n\nPlot:\nBased on a novel by Dean Koontz. A boy takes in a stray dog, later finding out that its an ultra-intelligent runaway from a genetic research lab. Unknow to him, the dog is being stalked by another escaped creature thats not quite so friendly.\n\nCast:\n\nMichael Ironside\t... \tLem Johnson\nChristopher Cary\t... \tT.V. Newscaster (as Christopher Carey)\nGraeme Campbell \t... \tMan on Boat\nDan O'Dowd      \t... \tFirst T.V. Reporter\nLala Sloatman   \t... \tTracey (as Lala)\nCorey Haim      \t... \tTravis Cornell\nDale Wilson     \t... \tBill Keeshan\nBlu Mankuma     \t... \tCliff\nColleen Winton  \t... \tDeputy Porter\nDuncan Fraser   \t... \tSheriff Walt Gaines\nBarbara Williams\t... \tNora Cornell\nLou Bollo       \t... \tMan by Stream\nJason Priestley \t... \tBoy on Bike\nMatt Hill       \t... \tBoy on Bike\nAndrew Morkey   \t... \tBoy on Bike (as Andrew Markey)\n  \n\n\nGeneral\nComplete name                    : Watchers (1988) - DVDRip - MP3 - ENG.avi\nFormat                           : AVI\nSource                           : PAL DVD\nFile size                        : 702 MiB\nDuration                         : 1h 26mn\nOveral bit rate                  : 1129 Kbps\nIAS1                             : English\n\nVideo\nFormat                           : MPEG-4 Visual\nCodec ID                         : XviD\nDuration                         : 1h 26mn\nBit rate                         : 994 Kbps\nWidth                            : 608 pixels\nHeight                           : 336 pixels\nDisplay aspect ratio             : 16/9\nFrame rate                       : 25.000 fps\nResolution                       : 8 bits\nColorimetry                      : 4:2:0\nScan type                        : Progressive\nBits/(Pixel*Frame)               : 0.195\nStream size                      : 618 MiB (88%)\n\nAudio\nFormat                           : MPEG Audio\nFormat version                   : Version 1\nFormat profile                   : Layer 3\nCodec ID                         : 55\nCodec ID/Hint                    : MP3\nDuration                         : 1h 26mn\nBit rate mode                    : Constant\nBit rate                         : 128 Kbps\nChannel(s)                       : 2 channels\nSampling rate                    : 48.0 KHz\nResolution                       : 16 bits\nStream size                      : 79.6 MiB (11%)\nWriting library                  : LAME3.97 \nEncoding settings                : CBR\n\n\n\nTrackers:\nhttp://www.torrent-downloads.to:5869/announce\nhttp://open.tracker.thepiratebay.se:80/announce\nhttp://tpb.tracker.thepiratebay.se:80/announce\nhttp://vip.tracker.thepiratebay.se/announce\n\n\nInfo Hash: 373BD538BB4061E098152847E3AB8B0B7137B4A1\n","torrent":{"xt":"urn:btih:373bd538bb4061e098152847e3ab8b0b7137b4a1","amp;dn":"Watchers+%281988%29+-+DVDRip+-+MP3+-+ENG","amp;tr":["udp%3A%2F%2Ftracker.openbittorrent.com%3A80","udp%3A%2F%2Fopen.demonii.com%3A1337","udp%3A%2F%2Ftracker.coppersurfer.tk%3A6969","udp%3A%2F%2Fexodus.desync.com%3A6969"],"infoHash":"373bd538bb4061e098152847e3ab8b0b7137b4a1","infoHashBuffer":{"type":"Buffer","data":[55,59,213,56,187,64,97,224,152,21,40,71,227,171,139,11,113,55,180,161]},"announce":[],"urlList":[]}}